<mxfile host="app.diagrams.net" modified="2020-09-02T15:52:12.922Z" agent="5.0 (Windows NT 6.3; Win64; x64) AppleWebKit/537.36 (KHTML, like Gecko) Chrome/85.0.4183.83 Safari/537.36" etag="g354vsQoOB_1001y5WKb" version="13.6.6" type="github">
  <diagram id="C5RBs43oDa-KdzZeNtuy" name="Page-1">
    <mxGraphModel dx="1102" dy="614" grid="1" gridSize="10" guides="1" tooltips="1" connect="1" arrows="1" fold="1" page="1" pageScale="1" pageWidth="827" pageHeight="1169" math="0" shadow="0">
      <root>
        <mxCell id="WIyWlLk6GJQsqaUBKTNV-0" />
        <mxCell id="WIyWlLk6GJQsqaUBKTNV-1" parent="WIyWlLk6GJQsqaUBKTNV-0" />
        <mxCell id="fc0hgk75tzBXO0NUroSb-18" value="" style="edgeStyle=orthogonalEdgeStyle;rounded=0;orthogonalLoop=1;jettySize=auto;html=1;labelBackgroundColor=#990099;strokeColor=#FF33FF;fontColor=#FF8000;" edge="1" parent="WIyWlLk6GJQsqaUBKTNV-1" source="fc0hgk75tzBXO0NUroSb-8" target="fc0hgk75tzBXO0NUroSb-17">
          <mxGeometry relative="1" as="geometry" />
        </mxCell>
        <mxCell id="fc0hgk75tzBXO0NUroSb-8" value="Inicio" style="strokeWidth=2;html=1;shape=mxgraph.flowchart.start_1;whiteSpace=wrap;fontColor=#FF8000;" vertex="1" parent="WIyWlLk6GJQsqaUBKTNV-1">
          <mxGeometry x="220" y="50" width="100" height="60" as="geometry" />
        </mxCell>
        <mxCell id="fc0hgk75tzBXO0NUroSb-25" value="" style="edgeStyle=orthogonalEdgeStyle;rounded=0;orthogonalLoop=1;jettySize=auto;html=1;labelBackgroundColor=#990099;strokeColor=#FF33FF;fontColor=#FF8000;" edge="1" parent="WIyWlLk6GJQsqaUBKTNV-1" source="fc0hgk75tzBXO0NUroSb-15" target="fc0hgk75tzBXO0NUroSb-20">
          <mxGeometry relative="1" as="geometry" />
        </mxCell>
        <mxCell id="fc0hgk75tzBXO0NUroSb-27" value="" style="edgeStyle=orthogonalEdgeStyle;rounded=0;orthogonalLoop=1;jettySize=auto;html=1;labelBackgroundColor=#990099;strokeColor=#FF33FF;fontColor=#FF8000;" edge="1" parent="WIyWlLk6GJQsqaUBKTNV-1" source="fc0hgk75tzBXO0NUroSb-15" target="fc0hgk75tzBXO0NUroSb-21">
          <mxGeometry relative="1" as="geometry" />
        </mxCell>
        <mxCell id="fc0hgk75tzBXO0NUroSb-15" value="N%2 == 0" style="strokeWidth=2;html=1;shape=mxgraph.flowchart.decision;whiteSpace=wrap;fontColor=#FF8000;" vertex="1" parent="WIyWlLk6GJQsqaUBKTNV-1">
          <mxGeometry x="220" y="240" width="100" height="90" as="geometry" />
        </mxCell>
        <mxCell id="fc0hgk75tzBXO0NUroSb-24" value="" style="edgeStyle=orthogonalEdgeStyle;rounded=0;orthogonalLoop=1;jettySize=auto;html=1;labelBackgroundColor=#990099;strokeColor=#FF33FF;fontColor=#FF8000;" edge="1" parent="WIyWlLk6GJQsqaUBKTNV-1" source="fc0hgk75tzBXO0NUroSb-17" target="fc0hgk75tzBXO0NUroSb-15">
          <mxGeometry relative="1" as="geometry" />
        </mxCell>
        <mxCell id="fc0hgk75tzBXO0NUroSb-17" value="read N" style="shape=parallelogram;html=1;strokeWidth=2;perimeter=parallelogramPerimeter;whiteSpace=wrap;rounded=1;arcSize=12;size=0.23;fontColor=#FF8000;" vertex="1" parent="WIyWlLk6GJQsqaUBKTNV-1">
          <mxGeometry x="220" y="140" width="100" height="60" as="geometry" />
        </mxCell>
        <mxCell id="fc0hgk75tzBXO0NUroSb-29" style="edgeStyle=orthogonalEdgeStyle;rounded=0;orthogonalLoop=1;jettySize=auto;html=1;labelBackgroundColor=#990099;strokeColor=#FF33FF;fontColor=#FF8000;" edge="1" parent="WIyWlLk6GJQsqaUBKTNV-1" source="fc0hgk75tzBXO0NUroSb-20">
          <mxGeometry relative="1" as="geometry">
            <mxPoint x="270" y="460" as="targetPoint" />
            <Array as="points">
              <mxPoint x="430" y="460" />
            </Array>
          </mxGeometry>
        </mxCell>
        <mxCell id="fc0hgk75tzBXO0NUroSb-20" value="N es par" style="shape=parallelogram;html=1;strokeWidth=2;perimeter=parallelogramPerimeter;whiteSpace=wrap;rounded=1;arcSize=12;size=0.23;fontColor=#FF8000;" vertex="1" parent="WIyWlLk6GJQsqaUBKTNV-1">
          <mxGeometry x="380" y="255" width="100" height="60" as="geometry" />
        </mxCell>
        <mxCell id="fc0hgk75tzBXO0NUroSb-28" value="" style="edgeStyle=orthogonalEdgeStyle;rounded=0;orthogonalLoop=1;jettySize=auto;html=1;labelBackgroundColor=#990099;strokeColor=#FF33FF;fontColor=#FF8000;" edge="1" parent="WIyWlLk6GJQsqaUBKTNV-1" source="fc0hgk75tzBXO0NUroSb-21" target="fc0hgk75tzBXO0NUroSb-22">
          <mxGeometry relative="1" as="geometry" />
        </mxCell>
        <mxCell id="fc0hgk75tzBXO0NUroSb-21" value="N es impar" style="shape=parallelogram;html=1;strokeWidth=2;perimeter=parallelogramPerimeter;whiteSpace=wrap;rounded=1;arcSize=12;size=0.23;fontColor=#FF8000;" vertex="1" parent="WIyWlLk6GJQsqaUBKTNV-1">
          <mxGeometry x="220" y="370" width="100" height="60" as="geometry" />
        </mxCell>
        <mxCell id="fc0hgk75tzBXO0NUroSb-22" value="Fin" style="strokeWidth=2;html=1;shape=mxgraph.flowchart.terminator;whiteSpace=wrap;fontColor=#FF8000;" vertex="1" parent="WIyWlLk6GJQsqaUBKTNV-1">
          <mxGeometry x="220" y="480" width="100" height="60" as="geometry" />
        </mxCell>
      </root>
    </mxGraphModel>
  </diagram>
</mxfile>
